<svg width="427" height="427" viewBox="0 0 427 427" fill="none" xmlns="http://www.w3.org/2000/svg">
<rect width="427" height="427" fill="white"/>
<path d="M215.5 218L104.5 197.5L35 235L14.5 280L137.5 338L416 319.5V280L366.5 235L309.5 189.5L215.5 218Z" fill="#D9D9D9" stroke="#5D5B5B" stroke-width="4"/>
<path opacity="0.46" d="M398 295C398 317.091 337.232 322 245 322C152.768 322 83.5 296.591 83.5 274.5C83.5 252.409 152.768 242 245 242C337.232 242 398 272.909 398 295Z" fill="#AD9B9B"/>
<path d="M128.5 411L150 381L302 403L128.5 411Z" fill="#828282" stroke="#564E4E" stroke-width="4"/>
<path d="M303.5 403L150.5 382L139.5 338.5L414 321L378 365L303.5 403Z" fill="#939393" stroke="#564E4E" stroke-width="4"/>
<mask id="path-5-inside-1_2_8" fill="white">
<path fill-rule="evenodd" clip-rule="evenodd" d="M133.931 192.102L103.569 185.843C103.569 185.843 100.85 209.843 97.7823 225.027C95.7676 234.997 91.7449 248.74 89.6176 255.757C88.3152 256.808 87.0589 258.177 85.9742 259.801C82.5545 264.924 82.1349 270.647 85.0371 272.584C87.6778 274.347 92.1588 272.369 95.521 268.139C94.6251 273.834 97.155 278.972 101.223 279.661C104.961 280.294 106.388 276.606 107.35 271.595C109.353 275.981 113.49 278.524 117.211 277.405C121.383 276.149 120.538 272.096 118.916 266.706C118.552 265.497 118.18 264.324 117.775 263.244C120.118 259.477 130.138 242.857 132.782 230.027C135.779 215.485 133.931 192.102 133.931 192.102Z"/>
</mask>
<path fill-rule="evenodd" clip-rule="evenodd" d="M133.931 192.102L103.569 185.843C103.569 185.843 100.85 209.843 97.7823 225.027C95.7676 234.997 91.7449 248.74 89.6176 255.757C88.3152 256.808 87.0589 258.177 85.9742 259.801C82.5545 264.924 82.1349 270.647 85.0371 272.584C87.6778 274.347 92.1588 272.369 95.521 268.139C94.6251 273.834 97.155 278.972 101.223 279.661C104.961 280.294 106.388 276.606 107.35 271.595C109.353 275.981 113.49 278.524 117.211 277.405C121.383 276.149 120.538 272.096 118.916 266.706C118.552 265.497 118.18 264.324 117.775 263.244C120.118 259.477 130.138 242.857 132.782 230.027C135.779 215.485 133.931 192.102 133.931 192.102Z" fill="#F69F82"/>
<path d="M103.569 185.843L104.377 181.925L100.087 181.041L99.5945 185.393L103.569 185.843ZM133.931 192.102L137.918 191.787L137.681 188.791L134.738 188.184L133.931 192.102ZM97.7823 225.027L101.703 225.819L97.7823 225.027ZM89.6176 255.757L92.1286 258.871L93.088 258.097L93.4456 256.918L89.6176 255.757ZM85.9742 259.801L82.6475 257.58L82.6475 257.58L85.9742 259.801ZM85.0371 272.584L87.2581 269.257L87.2581 269.257L85.0371 272.584ZM95.521 268.139L99.4724 268.76L101.83 253.774L92.3898 265.65L95.521 268.139ZM101.223 279.661L100.555 283.605L101.223 279.661ZM107.35 271.595L110.988 269.934L105.784 258.536L103.422 270.841L107.35 271.595ZM117.211 277.405L118.363 281.235L117.211 277.405ZM118.916 266.706L115.085 267.859L115.085 267.859L118.916 266.706ZM117.775 263.244L114.378 261.132L113.337 262.806L114.03 264.651L117.775 263.244ZM132.782 230.027L136.7 230.834L132.782 230.027ZM102.761 189.761L133.123 196.02L134.738 188.184L104.377 181.925L102.761 189.761ZM101.703 225.819C103.264 218.092 104.725 208.189 105.79 200.275C106.325 196.305 106.763 192.814 107.067 190.314C107.219 189.064 107.338 188.061 107.419 187.369C107.46 187.024 107.491 186.756 107.512 186.574C107.522 186.483 107.53 186.413 107.535 186.366C107.538 186.343 107.54 186.325 107.541 186.313C107.542 186.306 107.543 186.302 107.543 186.299C107.543 186.297 107.543 186.296 107.543 186.295C107.544 186.294 107.544 186.294 107.544 186.294C107.544 186.294 107.544 186.293 103.569 185.843C99.5945 185.393 99.5945 185.393 99.5945 185.393C99.5945 185.393 99.5944 185.393 99.5944 185.394C99.5943 185.394 99.5942 185.395 99.5941 185.396C99.5938 185.399 99.5933 185.403 99.5927 185.409C99.5915 185.42 99.5895 185.436 99.587 185.459C99.5819 185.503 99.5742 185.57 99.564 185.659C99.5437 185.836 99.5133 186.098 99.4734 186.439C99.3937 187.119 99.2763 188.11 99.1257 189.347C98.8244 191.821 98.3908 195.279 97.862 199.207C96.801 207.089 95.3683 216.777 93.8615 224.235L101.703 225.819ZM93.4456 256.918C95.5708 249.907 99.6463 235.998 101.703 225.819L93.8615 224.235C91.889 233.996 87.9191 247.572 85.7897 254.597L93.4456 256.918ZM89.3009 262.022C90.175 260.713 91.1614 259.651 92.1286 258.871L87.1067 252.643C85.4689 253.964 83.9428 255.64 82.6475 257.58L89.3009 262.022ZM87.2581 269.257C87.5304 269.439 87.0038 269.322 87.1242 267.679C87.2346 266.174 87.9029 264.116 89.3009 262.022L82.6475 257.58C80.6258 260.609 79.3745 263.973 79.1456 267.095C78.9269 270.079 79.6416 273.792 82.8161 275.911L87.2581 269.257ZM92.3898 265.65C91.027 267.364 89.5689 268.445 88.4306 268.933C87.2225 269.452 87.0122 269.093 87.2581 269.257L82.8161 275.911C85.7027 277.838 89.0533 277.372 91.5863 276.284C94.1893 275.167 96.6528 273.143 98.6522 270.628L92.3898 265.65ZM101.89 275.717C101.447 275.642 100.722 275.27 100.097 274.005C99.4751 272.747 99.1376 270.889 99.4724 268.76L91.5696 267.517C91.0085 271.084 91.488 274.642 92.9243 277.549C94.3574 280.449 96.9305 282.991 100.555 283.605L101.89 275.717ZM103.422 270.841C102.944 273.327 102.453 274.819 101.962 275.582C101.761 275.895 101.697 275.862 101.843 275.79C102.031 275.696 102.116 275.755 101.89 275.717L100.555 283.605C102.198 283.883 103.864 283.718 105.401 282.955C106.896 282.212 107.949 281.063 108.692 279.907C110.091 277.731 110.793 274.874 111.278 272.349L103.422 270.841ZM116.058 273.575C114.967 273.903 112.513 273.273 110.988 269.934L103.711 273.257C106.192 278.688 112.014 283.146 118.363 281.235L116.058 273.575ZM115.085 267.859C115.485 269.186 115.8 270.313 116.005 271.294C116.214 272.292 116.267 272.953 116.243 273.373C116.22 273.761 116.145 273.721 116.269 273.556C116.409 273.37 116.48 273.447 116.058 273.575L118.363 281.235C120.027 280.734 121.557 279.834 122.662 278.366C123.75 276.92 124.144 275.294 124.229 273.839C124.385 271.167 123.518 268.119 122.746 265.553L115.085 267.859ZM114.03 264.651C114.388 265.603 114.729 266.675 115.085 267.859L122.746 265.553C122.375 264.319 121.972 263.044 121.519 261.838L114.03 264.651ZM128.865 229.219C127.651 235.109 124.677 242.095 121.591 248.239C118.537 254.321 115.514 259.306 114.378 261.132L121.171 265.357C122.379 263.415 125.538 258.206 128.74 251.829C131.912 245.514 135.27 237.774 136.7 230.834L128.865 229.219ZM133.931 192.102C129.943 192.417 129.943 192.417 129.943 192.417C129.943 192.417 129.943 192.417 129.943 192.417C129.943 192.417 129.943 192.418 129.943 192.419C129.943 192.421 129.944 192.424 129.944 192.429C129.945 192.438 129.946 192.453 129.947 192.474C129.951 192.514 129.955 192.577 129.961 192.661C129.974 192.827 129.991 193.077 130.013 193.402C130.057 194.053 130.116 195.003 130.178 196.192C130.302 198.57 130.438 201.892 130.481 205.657C130.568 213.269 130.272 222.391 128.865 229.219L136.7 230.834C138.29 223.12 138.568 213.28 138.48 205.565C138.436 201.667 138.296 198.234 138.167 195.774C138.103 194.543 138.041 193.553 137.995 192.868C137.972 192.525 137.953 192.259 137.94 192.076C137.933 191.985 137.928 191.914 137.924 191.866C137.922 191.841 137.921 191.823 137.92 191.809C137.919 191.803 137.919 191.798 137.919 191.794C137.919 191.792 137.918 191.79 137.918 191.789C137.918 191.789 137.918 191.788 137.918 191.788C137.918 191.787 137.918 191.787 133.931 192.102Z" fill="#494747" mask="url(#path-5-inside-1_2_8)"/>
<path d="M108.282 200.527C105.782 215.86 99.9823 247.527 96.7823 251.527" stroke="#FFDFDF" stroke-width="4" stroke-linecap="round"/>
<path d="M77.2823 41.0268C77.2823 48.7279 70.5985 55.0268 62.2823 55.0268C53.9661 55.0268 47.2823 48.7279 47.2823 41.0268C47.2823 33.3257 53.9661 27.0268 62.2823 27.0268C70.5985 27.0268 77.2823 33.3257 77.2823 41.0268Z" fill="#494747" stroke="#494747"/>
<path d="M201.782 110.527C187.782 98.5268 187.282 19.0268 112.282 17.0268C80.6468 16.1832 48.1595 35.395 28.2823 58.0268C14.5672 73.6424 5.54576 95.1185 12.2824 95.5268C15.2769 95.7082 19.7823 95.5268 19.7823 95.5268C21.9264 114.824 66.7823 121.527 88.7823 126.027C90.2823 133.027 90.4207 132.468 91.2823 141.027C103.282 260.227 194.575 271.857 292.782 254.527C309.782 251.527 314.782 254.527 323.782 262.527C339.01 276.063 347.095 297.506 314.5 344.5C292.526 376.182 256 399 241.5 405C233.561 408.285 216 417.5 241.5 417.5C259.445 417.5 297 405 336 365C390.526 309.076 380.831 257.274 369 221.5C348 158 300.782 134.527 265.782 131.585C230.782 128.643 215.782 122.527 201.782 110.527Z" fill="#F69F82"/>
<path d="M19.7823 95.5268C21.7824 95.5268 117.782 91.0268 159.282 101.027M19.7823 95.5268C21.9264 114.824 66.7823 121.527 88.7823 126.027M19.7823 95.5268C19.7823 95.5268 15.2769 95.7082 12.2824 95.5268C5.54576 95.1185 14.5672 73.6424 28.2823 58.0268C48.1595 35.395 80.6468 16.1832 112.282 17.0268C187.282 19.0268 187.782 98.5268 201.782 110.527C215.782 122.527 230.782 128.643 265.782 131.585C300.782 134.527 348 158 369 221.5C380.831 257.274 390.526 309.076 336 365C297 405 259.445 417.5 241.5 417.5C216 417.5 233.561 408.285 241.5 405C256 399 292.526 376.182 314.5 344.5C347.095 297.506 339.01 276.063 323.782 262.527C314.782 254.527 309.782 251.527 292.782 254.527C194.575 271.857 103.282 260.227 91.2823 141.027C90.4207 132.468 90.2823 133.027 88.7823 126.027M88.7823 126.027L116.282 133.527" stroke="#494747" stroke-width="4"/>
<path d="M150.282 51.0268C150.282 57.0635 144.95 62.0268 138.282 62.0268C131.615 62.0268 126.282 57.0635 126.282 51.0268C126.282 44.9901 131.615 40.0268 138.282 40.0268C144.95 40.0268 150.282 44.9901 150.282 51.0268Z" fill="#494747" stroke="#494747"/>
<circle cx="46.2823" cy="86.0268" r="4" fill="#494747" stroke="#494747"/>
<circle cx="34.2823" cy="86.0268" r="4" fill="#494747" stroke="#494747"/>
<circle cx="134.5" cy="48.5" r="4.5" fill="#ECECEC"/>
<g style="mix-blend-mode:overlay">
<path d="M145.529 192.027C154.529 206.527 225.029 205.027 266.029 224.527C275.229 227.713 316 245 320 253C319.006 255.288 307.554 251.371 298 253C254 260.5 220.5 265.171 154.029 246.527C140.83 242.825 126.282 225.027 126.282 225.027L106.782 194.527L97.2822 161.027L90.7823 126.027C90.7823 126.027 75.5128 122.815 66.2823 120.527C59.9254 118.951 57.6159 118.194 51.2823 116.527C32.2823 111.527 20.7823 97.5268 20.7823 97.5268C20.7823 97.5268 82.2823 97.3601 118.282 99.0268L142.282 101.027L163.782 102.527C161.304 105.982 150.782 124.527 137.782 128.027C133.782 129.104 137.196 151.96 137.782 164.527C138.302 175.672 145.529 192.027 145.529 192.027Z" fill="#D9D9D9"/>
</g>
<mask id="path-16-inside-2_2_8" fill="white">
<path fill-rule="evenodd" clip-rule="evenodd" d="M178.344 198.007L147.379 190.527C147.379 190.527 148.055 220.454 147.379 235.867C146.845 248.053 144.55 266.149 143.924 270.937C141.885 272.475 139.942 274.919 138.541 277.949C135.625 284.254 136.164 290.707 139.743 292.362C143.323 294.017 148.588 290.248 151.503 283.943C152.18 282.479 152.671 281.008 152.98 279.59C152.948 280.503 152.939 281.468 152.93 282.461C152.927 282.829 152.924 283.2 152.919 283.574C152.848 289.42 154.331 294.429 158.499 294.48C162.146 294.525 164.272 290.616 164.794 285.722C167.063 289.458 169.604 291.789 173.023 290.146C177.904 287.801 179.378 280.731 176.315 274.354C175.954 273.603 175.547 272.896 175.1 272.235C176.468 267.066 181.18 248.491 181.782 235.867C182.487 221.096 178.344 198.007 178.344 198.007Z"/>
</mask>
<path fill-rule="evenodd" clip-rule="evenodd" d="M178.344 198.007L147.379 190.527C147.379 190.527 148.055 220.454 147.379 235.867C146.845 248.053 144.55 266.149 143.924 270.937C141.885 272.475 139.942 274.919 138.541 277.949C135.625 284.254 136.164 290.707 139.743 292.362C143.323 294.017 148.588 290.248 151.503 283.943C152.18 282.479 152.671 281.008 152.98 279.59C152.948 280.503 152.939 281.468 152.93 282.461C152.927 282.829 152.924 283.2 152.919 283.574C152.848 289.42 154.331 294.429 158.499 294.48C162.146 294.525 164.272 290.616 164.794 285.722C167.063 289.458 169.604 291.789 173.023 290.146C177.904 287.801 179.378 280.731 176.315 274.354C175.954 273.603 175.547 272.896 175.1 272.235C176.468 267.066 181.18 248.491 181.782 235.867C182.487 221.096 178.344 198.007 178.344 198.007Z" fill="#F69F82"/>
<path d="M147.379 190.527L148.318 186.639L143.263 185.417L143.38 190.617L147.379 190.527ZM178.344 198.007L182.281 197.3L181.82 194.732L179.283 194.119L178.344 198.007ZM147.379 235.867L143.383 235.692L147.379 235.867ZM143.924 270.937L146.333 274.13L147.672 273.119L147.89 271.456L143.924 270.937ZM138.541 277.949L134.91 276.27H134.91L138.541 277.949ZM139.743 292.362L141.422 288.732L139.743 292.362ZM151.503 283.943L147.873 282.264L151.503 283.943ZM152.98 279.59L156.978 279.733L149.073 278.736L152.98 279.59ZM152.93 282.461L156.93 282.497V282.497L152.93 282.461ZM152.919 283.574L156.919 283.623L152.919 283.574ZM158.499 294.48L158.45 298.48H158.45L158.499 294.48ZM164.794 285.722L168.213 283.646L162.072 273.531L160.817 285.297L164.794 285.722ZM173.023 290.146L171.291 286.541H171.291L173.023 290.146ZM176.315 274.354L179.92 272.622L179.92 272.622L176.315 274.354ZM175.1 272.235L171.233 271.213L170.769 272.969L171.786 274.475L175.1 272.235ZM181.782 235.867L177.787 235.677L181.782 235.867ZM146.44 194.415L177.404 201.895L179.283 194.119L148.318 186.639L146.44 194.415ZM151.375 236.043C151.718 228.219 151.717 216.789 151.632 207.381C151.59 202.663 151.526 198.429 151.474 195.374C151.447 193.847 151.423 192.614 151.406 191.762C151.397 191.336 151.39 191.005 151.386 190.781C151.383 190.669 151.381 190.583 151.38 190.525C151.379 190.496 151.379 190.474 151.379 190.459C151.378 190.452 151.378 190.446 151.378 190.442C151.378 190.441 151.378 190.439 151.378 190.438C151.378 190.438 151.378 190.437 151.378 190.437C151.378 190.437 151.378 190.436 147.379 190.527C143.38 190.617 143.38 190.617 143.38 190.617C143.38 190.618 143.38 190.618 143.38 190.618C143.38 190.619 143.38 190.62 143.38 190.622C143.38 190.625 143.38 190.631 143.381 190.638C143.381 190.652 143.381 190.673 143.382 190.701C143.383 190.758 143.385 190.842 143.387 190.952C143.392 191.174 143.399 191.501 143.408 191.924C143.425 192.769 143.448 193.994 143.475 195.513C143.527 198.552 143.591 202.763 143.633 207.453C143.717 216.862 143.716 228.102 143.383 235.692L151.375 236.043ZM147.89 271.456C148.514 266.69 150.832 248.428 151.375 236.043L143.383 235.692C142.857 247.679 140.587 265.608 139.958 270.418L147.89 271.456ZM141.514 267.744C138.868 269.741 136.541 272.745 134.91 276.27L142.172 279.628C143.343 277.094 144.903 275.209 146.333 274.13L141.514 267.744ZM134.91 276.27C133.216 279.934 132.435 283.815 132.72 287.232C132.994 290.513 134.397 294.297 138.064 295.993L141.422 288.732C141.414 288.728 141.393 288.718 141.355 288.68C141.313 288.639 141.238 288.552 141.151 288.39C140.967 288.052 140.767 287.46 140.693 286.567C140.543 284.767 140.95 282.27 142.172 279.628L134.91 276.27ZM138.064 295.993C141.731 297.689 145.523 296.307 148.201 294.39C150.988 292.394 153.44 289.285 155.134 285.622L147.873 282.264C146.651 284.906 145.012 286.834 143.544 287.885C142.815 288.407 142.235 288.638 141.858 288.717C141.678 288.755 141.563 288.755 141.505 288.75C141.451 288.745 141.43 288.735 141.422 288.732L138.064 295.993ZM155.134 285.622C155.929 283.903 156.514 282.155 156.888 280.444L149.073 278.736C148.827 279.861 148.431 281.056 147.873 282.264L155.134 285.622ZM148.983 279.447C148.948 280.424 148.939 281.444 148.931 282.426L156.93 282.497C156.939 281.492 156.948 280.583 156.978 279.733L148.983 279.447ZM148.931 282.426C148.927 282.794 148.924 283.159 148.92 283.525L156.919 283.623C156.924 283.241 156.927 282.863 156.93 282.497L148.931 282.426ZM148.92 283.525C148.881 286.695 149.243 290.073 150.463 292.823C151.755 295.732 154.313 298.429 158.45 298.48L158.547 290.48C158.367 290.478 158.347 290.445 158.328 290.43C158.256 290.373 158.033 290.158 157.776 289.578C157.23 288.349 156.886 286.299 156.919 283.623L148.92 283.525ZM158.45 298.48C161.968 298.523 164.554 296.566 166.149 294.168C167.678 291.868 168.47 288.976 168.771 286.146L160.817 285.297C160.596 287.362 160.063 288.872 159.487 289.738C158.976 290.506 158.676 290.482 158.547 290.48L158.45 298.48ZM161.375 287.798C162.591 289.8 164.19 291.983 166.351 293.34C168.837 294.899 171.782 295.18 174.755 293.752L171.291 286.541C171.118 286.624 171.002 286.657 170.941 286.67C170.882 286.683 170.858 286.681 170.857 286.681C170.856 286.681 170.844 286.681 170.813 286.67C170.779 286.658 170.71 286.63 170.603 286.563C170.072 286.23 169.266 285.379 168.213 283.646L161.375 287.798ZM174.755 293.752C178.554 291.927 180.773 288.375 181.564 284.578C182.354 280.787 181.799 276.533 179.92 272.622L172.709 276.086C173.894 278.553 174.133 281.022 173.732 282.946C173.332 284.866 172.374 286.021 171.291 286.541L174.755 293.752ZM179.92 272.622C179.475 271.696 178.971 270.819 178.415 269.996L171.786 274.475C172.123 274.973 172.433 275.511 172.709 276.086L179.92 272.622ZM177.787 235.677C177.207 247.811 172.616 265.984 171.233 271.213L178.967 273.258C180.319 268.147 185.152 249.171 185.778 236.058L177.787 235.677ZM178.344 198.007C174.407 198.713 174.407 198.713 174.407 198.713C174.407 198.713 174.407 198.713 174.407 198.713C174.407 198.714 174.407 198.714 174.407 198.715C174.407 198.718 174.408 198.721 174.409 198.726C174.411 198.736 174.413 198.751 174.417 198.771C174.424 198.812 174.435 198.875 174.45 198.958C174.479 199.125 174.522 199.373 174.577 199.696C174.686 200.343 174.843 201.287 175.029 202.468C175.401 204.831 175.891 208.135 176.358 211.892C177.301 219.471 178.122 228.652 177.787 235.677L185.778 236.058C186.148 228.312 185.249 218.562 184.297 210.904C183.816 207.042 183.314 203.651 182.931 201.223C182.74 200.008 182.578 199.033 182.464 198.359C182.407 198.022 182.362 197.76 182.33 197.581C182.315 197.492 182.303 197.423 182.294 197.376C182.29 197.352 182.287 197.334 182.285 197.321C182.283 197.315 182.283 197.31 182.282 197.307C182.282 197.305 182.281 197.304 182.281 197.302C182.281 197.302 182.281 197.301 182.281 197.301C182.281 197.301 182.281 197.3 178.344 198.007Z" fill="#494747" mask="url(#path-16-inside-2_2_8)"/>
<path d="M14.5 91C18 70 46 30.5 106.282 20.5268" stroke="#FFDFDF" stroke-width="4" stroke-linecap="round"/>
<path d="M190.782 100.527C196.616 110.86 210.682 130.127 254.282 134.527C297.882 138.927 314.782 148.027 331.782 167.527" stroke="#FFDFDF" stroke-width="4" stroke-linecap="round"/>
<path d="M152.605 195C153.226 216.787 153.573 261.689 150 267" stroke="#FFDFDF" stroke-width="4" stroke-linecap="round"/>
<path d="M273 390C317 357.5 335 325 341 294.5C342.574 286.5 340.172 272.397 327 260C318.5 252 308 246.5 308 246.5" stroke="#FFDFDF" stroke-width="4" stroke-linecap="round"/>
<ellipse cx="171.782" cy="178.027" rx="28" ry="28.5" fill="#F69F82"/>
<ellipse cx="186.282" cy="137.027" rx="8.5" ry="6.5" fill="#D86A4E"/>
<circle cx="211.282" cy="156.027" r="6.5" fill="#D86A4E"/>
<circle cx="234.282" cy="144.027" r="6.5" fill="#D86A4E"/>
<ellipse cx="257.282" cy="168.527" rx="8.5" ry="8" fill="#D86A4E"/>
<ellipse cx="287.782" cy="160.027" rx="8" ry="7.5" fill="#D86A4E"/>
<ellipse cx="304.782" cy="179.027" rx="6" ry="5.5" fill="#D86A4E"/>
<ellipse cx="330.782" cy="184.027" rx="7" ry="6.5" fill="#D86A4E"/>
<ellipse cx="338.782" cy="207.027" rx="7" ry="6.5" fill="#D86A4E"/>
<circle cx="357.782" cy="225.527" r="5" fill="#D86A4E"/>
<circle cx="363.782" cy="262.527" r="5" fill="#D86A4E"/>
<circle cx="362.782" cy="289.527" r="5" fill="#D86A4E"/>
<path d="M16 338V281L139 338L150.5 381L127.5 411L49 391L16 338Z" fill="#B2B2B2" stroke="#5D5B5B" stroke-width="4"/>
<mask id="path-35-inside-3_2_8" fill="white">
<path fill-rule="evenodd" clip-rule="evenodd" d="M247.276 274.375C244.214 275.096 241.18 278.126 239.676 282.368C237.646 288.094 239.172 293.86 243.085 295.247C245.776 296.201 248.896 294.835 251.242 292.025L251.737 291.949C252.884 294.77 254.94 296.706 257.418 296.905C260.311 297.137 263.013 294.939 264.543 291.526C266.952 294.849 270.399 296.547 273.326 295.494C277.233 294.09 278.733 288.317 276.677 282.6C276.033 280.81 275.117 279.238 274.043 277.966C278.384 271.932 284.044 266.42 289.896 260.722C304.249 246.746 319.752 231.65 319.752 204.993C314.254 204.122 307.614 202.294 300.949 200.459C284.513 195.935 267.925 191.369 267.925 201C267.925 211.264 263.443 223.618 258.479 237.301C254.284 248.864 249.745 261.375 247.276 274.375Z"/>
</mask>
<path fill-rule="evenodd" clip-rule="evenodd" d="M247.276 274.375C244.214 275.096 241.18 278.126 239.676 282.368C237.646 288.094 239.172 293.86 243.085 295.247C245.776 296.201 248.896 294.835 251.242 292.025L251.737 291.949C252.884 294.77 254.94 296.706 257.418 296.905C260.311 297.137 263.013 294.939 264.543 291.526C266.952 294.849 270.399 296.547 273.326 295.494C277.233 294.09 278.733 288.317 276.677 282.6C276.033 280.81 275.117 279.238 274.043 277.966C278.384 271.932 284.044 266.42 289.896 260.722C304.249 246.746 319.752 231.65 319.752 204.993C314.254 204.122 307.614 202.294 300.949 200.459C284.513 195.935 267.925 191.369 267.925 201C267.925 211.264 263.443 223.618 258.479 237.301C254.284 248.864 249.745 261.375 247.276 274.375Z" fill="#F69F82"/>
<path d="M239.676 282.368L235.906 281.031L235.906 281.031L239.676 282.368ZM247.276 274.375L248.193 278.268L250.721 277.672L251.206 275.121L247.276 274.375ZM243.085 295.247L244.421 291.477L244.421 291.477L243.085 295.247ZM251.242 292.025L250.636 288.071L249.141 288.3L248.171 289.461L251.242 292.025ZM251.737 291.949L255.443 290.443L254.254 287.516L251.131 287.995L251.737 291.949ZM257.418 296.905L257.098 300.892L257.098 300.892L257.418 296.905ZM264.543 291.526L267.781 289.178L263.721 283.58L260.893 289.89L264.543 291.526ZM273.326 295.494L274.68 299.258L274.68 299.258L273.326 295.494ZM276.677 282.6L280.441 281.246L280.441 281.246L276.677 282.6ZM274.043 277.966L270.796 275.63L268.974 278.163L270.987 280.547L274.043 277.966ZM289.896 260.722L287.106 257.856L287.106 257.856L289.896 260.722ZM319.752 204.993L323.752 204.993L323.752 201.577L320.378 201.043L319.752 204.993ZM300.949 200.459L299.888 204.316L299.888 204.316L300.949 200.459ZM267.925 201L263.925 201L263.925 201L267.925 201ZM258.479 237.301L262.239 238.665L262.239 238.665L258.479 237.301ZM243.446 283.704C244.652 280.301 246.855 278.583 248.193 278.268L246.359 270.481C241.572 271.609 237.707 275.95 235.906 281.031L243.446 283.704ZM244.421 291.477C244.074 291.354 243.41 290.89 243.018 289.411C242.633 287.955 242.665 285.908 243.446 283.704L235.906 281.031C234.657 284.553 234.436 288.252 235.285 291.458C236.127 294.64 238.182 297.753 241.748 299.017L244.421 291.477ZM248.171 289.461C246.36 291.631 244.87 291.636 244.421 291.477L241.748 299.017C246.682 300.767 251.432 298.038 254.312 294.588L248.171 289.461ZM251.131 287.995L250.636 288.071L251.848 295.979L252.344 295.903L251.131 287.995ZM257.737 292.918C257.315 292.884 256.263 292.46 255.443 290.443L248.032 293.455C249.506 297.081 252.565 300.529 257.098 300.892L257.737 292.918ZM260.893 289.89C259.702 292.546 258.219 292.956 257.737 292.918L257.098 300.892C262.402 301.317 266.324 297.331 268.193 293.162L260.893 289.89ZM271.973 291.73C271.489 291.904 269.719 291.85 267.781 289.178L261.304 293.874C264.185 297.847 269.31 301.189 274.68 299.258L271.973 291.73ZM272.913 283.953C273.704 286.153 273.745 288.2 273.366 289.658C272.981 291.139 272.319 291.606 271.973 291.73L274.68 299.258C278.24 297.978 280.281 294.856 281.109 291.67C281.943 288.461 281.706 284.763 280.441 281.246L272.913 283.953ZM270.987 280.547C271.741 281.44 272.424 282.592 272.913 283.953L280.441 281.246C279.643 279.027 278.493 277.036 277.099 275.385L270.987 280.547ZM287.106 257.856C281.31 263.5 275.379 269.259 270.796 275.63L277.29 280.302C281.388 274.606 286.779 269.341 292.687 263.588L287.106 257.856ZM315.752 204.993C315.752 229.788 301.53 243.811 287.106 257.856L292.687 263.588C306.968 249.682 323.752 233.512 323.752 204.993L315.752 204.993ZM299.888 204.316C306.483 206.132 313.36 208.03 319.126 208.944L320.378 201.043C315.147 200.214 308.745 198.457 302.011 196.603L299.888 204.316ZM271.925 201C271.925 200.377 272.054 200.158 272.075 200.125C272.089 200.102 272.155 199.987 272.481 199.833C273.312 199.441 275.022 199.171 277.95 199.408C283.689 199.874 291.525 202.014 299.888 204.316L302.011 196.603C293.937 194.38 285.261 191.975 278.597 191.434C275.323 191.169 271.859 191.28 269.065 192.599C267.58 193.301 266.222 194.374 265.264 195.927C264.313 197.47 263.925 199.215 263.925 201L271.925 201ZM262.239 238.665C267.111 225.236 271.925 212.126 271.925 201L263.925 201C263.925 210.401 259.774 222 254.718 235.937L262.239 238.665ZM251.206 275.121C253.605 262.488 258.027 250.274 262.239 238.665L254.718 235.937C250.541 247.453 245.885 260.262 243.346 273.628L251.206 275.121Z" fill="#494747" mask="url(#path-35-inside-3_2_8)"/>
<path d="M272.605 201C273.226 222.787 257.5 254 253.5 271.5" stroke="#FFDFDF" stroke-width="4" stroke-linecap="round"/>
<ellipse cx="296.072" cy="202.829" rx="29" ry="12" transform="rotate(14.3874 296.072 202.829)" fill="#F69F82"/>
</svg>
